#!OML:ASF E:\Style4\Style4.ASF
:FULLY-SPECIFIED
:DEGREES
1980
root 0.351251 16.9056 -3.20985 14.0761 7.55282 5.51269
lowerback 23.2823 3.22573 2.8378
upperback 15.4552 4.72164 3.05365
thorax 4.08367 2.48248 0.808655
lowerneck -2.64685 -16.7623 -4.22967
upperneck 23.6681 -23.33 5.647
head 9.07219 -10.6341 0.408764
rclavicle 3.49861e-014 1.90833e-014
rhumerus 81.3465 -16.5085 -1227.07
rradius 7.23963
rwrist 1179.21
rhand -0.0133302 20.4887
rfingers 7.12502
rthumb 25.5776 -7.8139
lclavicle 3.49861e-014 1.90833e-014
lhumerus 75.7641 26.3524 31.5542
lradius 120.3
lwrist 40.8545
lhand 2.93962 30.7587
lfingers 7.12502
lthumb 28.4029 58.6236
rfemur -49.0819 -13.2934 14.9146
rtibia 53.775
rfoot -16.3011 -16.9061
rtoes -9.42301
lfemur -47.4629 -0.68207 -26.8524
ltibia 46.9279
lfoot -12.6948 3.6586
ltoes -10.155
1981
root 0.35712 16.9213 -3.20634 14.1578 7.54123 5.52457
lowerback 23.1004 3.20499 2.84814
upperback 15.5583 4.68736 3.07149
thorax 4.2894 2.46748 0.845781
lowerneck -3.38421 -16.7937 -4.21795
upperneck 23.9182 -23.389 5.54417
head 9.27848 -10.6333 0.287629
rclavicle 1.43125e-014 -7.95139e-015
rhumerus 81.2897 -15.9943 -1225.87
rradius 7.28419
rwrist 1177.64
rhand -1.71869 21.0935
rfingers 7.12502
rthumb 23.9432 -7.43359
lclavicle 1.43125e-014 -7.95139e-015
lhumerus 75.9571 26.7081 31.597
lradius 120.179
lwrist 40.8442
lhand 2.93301 30.5792
lfingers 7.12502
lthumb 28.3965 58.4451
rfemur -48.968 -13.2876 14.8865
rtibia 53.4448
rfoot -16.1722 -16.932
rtoes -9.09495
lfemur -47.3338 -0.790646 -26.8431
ltibia 46.583
lfoot -12.6011 3.79127
ltoes -10.309
1982
root 0.362702 16.9392 -3.20311 14.1778 7.51676 5.47199
lowerback 22.9851 3.19061 2.86598
upperback 15.6634 4.66418 3.13172
thorax 4.46297 2.45563 0.918257
lowerneck -3.93905 -16.8074 -4.32946
upperneck 24.0246 -23.4487 5.66836
head 9.44911 -10.6342 0.271067
rclavicle -6.04305e-014 -1.59028e-014
rhumerus 81.1485 -15.4523 -1224.64
rradius 7.40837
rwrist 1176.32
rhand -3.43169 21.7499
rfingers 7.12502
rthumb 22.2996 -6.98334
lclavicle -6.04305e-014 -1.59028e-014
lhumerus 76.0908 27.0629 31.6894
lradius 120.081
lwrist 40.8353
lhand 2.94281 30.5595
lfingers 7.12502
lthumb 28.4059 58.4239
rfemur -48.8086 -13.2305 14.9132
rtibia 53.1126
rfoot -16.0172 -16.968
rtoes -9.2864
lfemur -47.1572 -0.828231 -26.783
ltibia 46.2542
lfoot -12.5656 3.87822
ltoes -10.5451
1983
root 0.366844 16.9599 -3.19895 14.1643 7.52782 5.38533
lowerback 22.9375 3.16712 2.91784
upperback 15.7385 4.63858 3.20581
thorax 4.57108 2.44371 0.981297
lowerneck -4.41018 -16.8312 -4.35018
upperneck 24.0629 -23.4903 5.65272
head 9.54953 -10.6394 0.215638
rclavicle -3.18055e-014 -1.11319e-014
rhumerus 80.9913 -14.9983 -1223.4
rradius 7.53718
rwrist 1175.04
rhand -5.06635 22.4034
rfingers 7.12502
rthumb 20.7297 -6.50938
lclavicle -3.18055e-014 -1.11319e-014
lhumerus 76.1853 27.33 31.7636
lradius 119.997
lwrist 40.759
lhand 2.92865 30.5146
lfingers 7.12502
lthumb 28.3924 58.3812
rfemur -48.5803 -13.1483 14.9659
rtibia 52.7792
rfoot -15.9246 -17.0144
rtoes -9.18597
lfemur -46.9458 -0.870631 -26.6711
ltibia 45.9447
lfoot -12.492 3.94911
ltoes -10.9052
1984
root 0.368839 16.9771 -3.19679 14.1227 7.60098 5.34495
lowerback 22.9571 3.11847 2.97485
upperback 15.8056 4.58576 3.25655
thorax 4.64029 2.42015 1.01695
lowerneck -4.88504 -16.8568 -4.25072
upperneck 24.1277 -23.4993 5.42942
head 9.61441 -10.639 0.0872406
rclavicle -1.11319e-014 0
rhumerus 80.8725 -14.6381 -1222.19
rradius 7.64148
rwrist 1173.76
rhand -6.84241 23.1037
rfingers 7.12502
rthumb 19.0224 -5.98606
lclavicle -1.11319e-014 0
lhumerus 76.3039 27.5377 31.7572
lradius 119.852
lwrist 40.5549
lhand 2.81448 30.3382
lfingers 7.12502
lthumb 28.2833 58.2229
rfemur -48.3288 -13.156 14.9893
rtibia 52.4714
rfoot -15.8684 -17.027
rtoes -9.33146
lfemur -46.7199 -0.974669 -26.5886
ltibia 45.6518
lfoot -12.3515 3.96684
ltoes -10.7079
1985
root 0.373027 16.9912 -3.19366 14.0699 7.64535 5.34386
lowerback 22.9396 3.07839 2.99901
upperback 15.9023 4.53592 3.29677
thorax 4.75977 2.39676 1.06298
lowerneck -5.30143 -16.8748 -4.21209
upperneck 24.1218 -23.5168 5.34385
head 9.67089 -10.6399 0.0143515
rclavicle -4.77083e-014 2.54444e-014
rhumerus 80.756 -14.2152 -1220.98
rradius 7.70738
rwrist 1172.43
rhand -8.98459 23.5937
rfingers 7.12502
rthumb 16.9613 -5.68576
lclavicle -4.77083e-014 2.54444e-014
lhumerus 76.4012 27.7928 31.7627
lradius 119.724
lwrist 40.4168
lhand 2.8751 30.1516
lfingers 7.12502
lthumb 28.3412 58.0267
rfemur -48.0808 -13.2031 14.9735
rtibia 52.1901
rfoot -15.7525 -17.0118
rtoes -9.61598
lfemur -46.493 -1.03964 -26.5797
ltibia 45.3864
lfoot -12.2442 3.93659
ltoes -10.088
1986
root 0.376977 17.0046 -3.19073 14.0847 7.58918 5.32847
lowerback 22.8304 3.09591 2.99353
upperback 15.9867 4.5494 3.3365
thorax 4.90704 2.40205 1.11811
lowerneck -5.82198 -16.8998 -4.27104
upperneck 24.2892 -23.5615 5.31268
head 9.8304 -10.6411 -0.0526722
rclavicle 4.77083e-015 -2.22639e-014
rhumerus 80.6264 -13.8283 -1219.77
rradius 7.80055
rwrist 1171.09
rhand -10.8923 23.9781
rfingers 7.12502
rthumb 15.1242 -5.44926
lclavicle 4.77083e-015 -2.22639e-014
lhumerus 76.4896 28.0557 31.8027
lradius 119.712
lwrist 40.4633
lhand 2.90394 30.212
lfingers 7.12502
lthumb 28.3688 58.0826
rfemur -47.9543 -13.1557 14.975
rtibia 51.9467
rfoot -15.6105 -17.0227
rtoes -9.7192
lfemur -46.3563 -1.03618 -26.5689
ltibia 45.1579
lfoot -12.1462 3.95782
ltoes -9.92378
1987
root 0.381738 17.0162 -3.18696 14.1049 7.5353 5.31319
lowerback 22.7149 3.10363 2.98103
upperback 16.0537 4.54956 3.36581
thorax 5.0376 2.40034 1.1676
lowerneck -6.2767 -16.9219 -4.29673
upperneck 24.4786 -23.5882 5.2079
head 9.97111 -10.6397 -0.137878
rclavicle 4.6118e-014 1.59028e-014
rhumerus 80.4651 -13.5428 -1218.55
rradius 7.90522
rwrist 1169.77
rhand -12.6805 24.4992
rfingers 7.12502
rthumb 13.4012 -5.04978
lclavicle 4.6118e-014 1.59028e-014
lhumerus 76.5348 28.281 31.8105
lradius 119.737
lwrist 40.5235
lhand 2.8488 30.2114
lfingers 7.12502
lthumb 28.3161 58.0907
rfemur -47.839 -13.0945 14.9563
rtibia 51.7388
rfoot -15.6579 -16.9694
rtoes -9.11125
lfemur -46.2333 -1.05485 -26.5495
ltibia 44.9561
lfoot -12.053 4.02464
ltoes -10.3667
1988
root 0.384241 17.0248 -3.18474 14.1122 7.51687 5.31473
lowerback 22.6398 3.0978 2.93361
upperback 16.1197 4.52918 3.39414
thorax 5.1444 2.38553 1.2365
lowerneck -6.62465 -16.9418 -4.28442
upperneck 24.5663 -23.6174 5.15074
head 10.058 -10.6415 -0.198619
rclavicle 4.92986e-014 3.81667e-014
rhumerus 80.3164 -13.1785 -1217.36
rradius 8.02174
rwrist 1168.5
rhand -14.3681 25.0069
rfingers 7.12502
rthumb 11.7741 -4.64213
lclavicle 4.92986e-014 3.81667e-014
lhumerus 76.437 28.5108 31.7535
lradius 119.773
lwrist 40.4233
lhand 2.84172 30.1404
lfingers 7.12502
lthumb 28.3093 58.0208
rfemur -47.7366 -13.0508 14.9323
rtibia 51.5618
rfoot -15.5841 -17.0381
rtoes -9.22055
lfemur -46.1271 -1.06131 -26.5499
ltibia 44.782
lfoot -12.0683 4.02451
ltoes -10.2471
1989
root 0.387737 17.0327 -3.18373 14.1386 7.47822 5.33383
lowerback 22.5595 3.10856 2.89566
upperback 16.1795 4.53117 3.42077
thorax 5.24769 2.3826 1.29439
lowerneck -7.04322 -16.9959 -4.40802
upperneck 24.7736 -23.7097 5.18714
head 10.2364 -10.6625 -0.237227
rclavicle 1.11319e-014 -3.65764e-014
rhumerus 80.1865 -12.8491 -1216.16
rradius 8.14431
rwrist 1167.17
rhand -15.9174 25.4168
rfingers 7.12502
rthumb 10.2798 -4.31202
lclavicle 1.11319e-014 -3.65764e-014
lhumerus 76.3933 28.7181 31.7406
lradius 119.792
lwrist 40.3019
lhand 2.88207 30.0398
lfingers 7.12502
lthumb 28.3479 57.9138
rfemur -47.6887 -13.029 14.8975
rtibia 51.4074
rfoot -15.4093 -17.0944
rtoes -9.417
lfemur -46.0534 -1.02304 -26.5977
ltibia 44.6198
lfoot -12.0235 4.01292
ltoes -9.92807
1990
root 0.390878 17.04 -3.18219 14.1195 7.41198 5.35896
lowerback 22.5389 3.13902 2.83743
upperback 16.2385 4.55696 3.46468
thorax 5.3179 2.38854 1.37445
lowerneck -7.46374 -17.0493 -4.52852
upperneck 25.0329 -23.7865 5.15215
head 10.4239 -10.6796 -0.298576
rclavicle -1.27222e-014 -4.77083e-015
rhumerus 80.016 -12.6234 -1214.91
rradius 8.25214
rwrist 1165.81
rhand -17.4545 26.0925
rfingers 7.12502
rthumb 8.79676 -3.70421
lclavicle -1.27222e-014 -4.77083e-015
lhumerus 76.439 28.8513 31.7884
lradius 119.788
lwrist 40.2795
lhand 2.87507 30.0553
lfingers 7.12502
lthumb 28.3412 57.9305
rfemur -47.5901 -12.9748 14.838
rtibia 51.262
rfoot -15.3411 -17.0975
rtoes -9.32788
lfemur -45.9375 -1.00734 -26.6327
ltibia 44.4809
lfoot -11.9928 4.05952
ltoes -10.0485
1991
root 0.391689 17.0485 -3.17979 14.0671 7.37379 5.33176
lowerback 22.5499 3.15992 2.79638
upperback 16.2822 4.57505 3.52922
thorax 5.35462 2.39041 1.46568
lowerneck -7.61089 -17.0548 -4.50135
upperneck 24.9999 -23.7814 5.08818
head 10.4254 -10.679 -0.333427
rclavicle 7.15625e-014 -1.90833e-014
rhumerus 79.8026 -12.3911 -1213.66
rradius 8.33703
rwrist 1164.61
rhand -18.9897 26.7993
rfingers 7.12502
rthumb 7.31513 -3.0542
lclavicle 7.15625e-014 -1.90833e-014
lhumerus 76.4395 28.9724 31.8102
lradius 119.801
lwrist 40.3448
lhand 2.74944 30.0306
lfingers 7.12502
lthumb 28.2211 57.9257
rfemur -47.44 -12.9282 14.8463
rtibia 51.1302
rfoot -15.4104 -17.042
rtoes -8.72409
lfemur -45.8013 -0.971271 -26.6033
ltibia 44.3632
lfoot -12.0417 4.11818
ltoes -10.3225
